HIERARCHY
ROOT hip
{
	OFFSET 0.000000 0.000000 0.000000
	CHANNELS 6 Xposition Yposition Zposition Xrotation Zrotation Yrotation 
	JOINT abdomen
	{
		OFFSET 0.000000 3.422050 0.000000
		CHANNELS 3 Xrotation Zrotation Yrotation 
		JOINT chest
		{
			OFFSET 0.000000 8.486693 -0.684411
			CHANNELS 3 Xrotation Zrotation Yrotation 
			JOINT neck
			{
				OFFSET 0.000000 10.266162 -0.273764
				CHANNELS 3 Xrotation Zrotation Yrotation 
				JOINT head
				{
					OFFSET 0.000000 3.148285 0.000000
					CHANNELS 3 Xrotation Zrotation Yrotation 
					End Site
					{
						OFFSET 0.000000 3.148289 0.000000
					}
				}
			}
			JOINT lCollar
			{
				OFFSET 3.422053 6.707223 -0.821293
				CHANNELS 3 Yrotation Zrotation Xrotation 
				JOINT lShldr
				{
					OFFSET 3.285171 0.000000 0.000000
					CHANNELS 3 Zrotation Yrotation Xrotation 
					JOINT lForeArm
					{
						OFFSET 10.129278 0.000000 0.000000
						CHANNELS 3 Yrotation Zrotation Xrotation 
						JOINT lHand
						{
							OFFSET 8.486692 0.000000 0.000000
							CHANNELS 3 Zrotation Yrotation Xrotation 
							End Site
							{
								OFFSET 4.106464 0.000000 0.000000
							}
						}
					}
				}
			}
			JOINT rCollar
			{
				OFFSET -3.558935 6.707223 -0.821293
				CHANNELS 3 Yrotation Zrotation Xrotation 
				JOINT rShldr
				{
					OFFSET -3.148289 0.000000 0.000000
					CHANNELS 3 Zrotation Yrotation Xrotation 
					JOINT rForeArm
					{
						OFFSET -10.266159 0.000000 0.000000
						CHANNELS 3 Yrotation Zrotation Xrotation 
						JOINT rHand
						{
							OFFSET -8.349810 0.000000 0.000000
							CHANNELS 3 Zrotation Yrotation Xrotation 
							End Site
							{
								OFFSET -4.106464 0.000000 0.000000
							}
						}
					}
				}
			}
		}
	}
	JOINT lThigh
	{
		OFFSET 5.338403 -1.642589 1.368821
		CHANNELS 3 Xrotation Zrotation Yrotation 
		JOINT lShin
		{
			OFFSET -2.053232 -20.121670 0.000000
			CHANNELS 3 Xrotation Zrotation Yrotation 
			JOINT lFoot
			{
				OFFSET 0.000000 -19.300380 -1.231939
				CHANNELS 3 Xrotation Yrotation Zrotation 
				End Site
				{
					OFFSET 0.000000 -2.463878 4.653993
				}
			}
		}
	}
	JOINT rThigh
	{
		OFFSET -5.338403 -1.642589 1.368821
		CHANNELS 3 Xrotation Zrotation Yrotation 
		JOINT rShin
		{
			OFFSET 2.053232 -20.121670 0.000000
			CHANNELS 3 Xrotation Zrotation Yrotation 
			JOINT rFoot
			{
				OFFSET 0.000000 -19.300380 -1.231939
				CHANNELS 3 Xrotation Yrotation Zrotation 
				End Site
				{
					OFFSET 0.000000 -2.463878 4.653993
				}
			}
		}
	}
}
MOTION
Frames: 8
Frame Time: 0.033264
0.000000 43.528500 -0.649182 22.647375 0.000000 0.000000 -0.260425 -0.539878 -0.120019 6.524666 -0.668463 -0.800135 6.996825 0.000000 0.000000 9.450060 0.000000 0.000000 5.092194 6.778280 13.720621 -77.959221 1.386215 -1.942763 19.266939 -26.020117 6.119353 0.693162 -28.337425 6.739455 7.009701 2.477814 3.232565 84.243973 17.606010 31.599146 36.998814 4.998447 6.363044 -1.019263 -3.845718 -30.392088 -20.552822 2.881997 11.131280 82.392899 6.923543 -2.000945 72.753723 19.995880 -17.669983 -20.693655 -2.827905 -11.148337 88.799156 -6.311612 0.978524 35.492741 -5.319723 12.519758 
0.000000 43.528500 -0.615015 22.296907 0.000000 0.000000 -0.686225 -0.539883 -0.120029 8.385192 -0.668414 -0.800204 6.996825 0.000000 0.000000 9.900928 0.000000 0.000000 5.038733 6.557712 12.845658 -77.959221 1.386215 -1.942763 19.069304 -25.841286 6.045125 0.656458 -28.363752 6.508376 7.038296 2.929897 2.908740 83.521347 18.217709 31.592237 36.998829 4.998452 6.384975 -0.759155 -3.189033 -29.817522 -20.075066 2.861311 11.100281 82.365730 6.920336 -2.004196 72.753723 19.995880 -17.669983 -20.218258 -2.801204 -11.112367 88.772629 -6.309028 0.981479 35.492741 -5.319723 12.519758 
0.000000 43.528500 -0.580847 21.946442 0.000000 0.000000 -1.112001 -0.539888 -0.120038 10.243752 -0.668362 -0.800271 6.996825 0.000000 0.000000 10.351770 0.000000 0.000000 4.981929 6.338037 11.971089 -77.959221 1.386215 -1.942763 18.872223 -25.662226 5.971694 0.619867 -28.390205 6.277264 7.069460 3.381768 2.584581 82.796272 18.829111 31.577171 36.998837 4.998457 6.406907 -0.492687 -2.535161 -29.240459 -19.597338 2.840884 11.069110 82.338570 6.917130 -2.007446 72.753723 19.995880 -17.669983 -19.742889 -2.774803 -11.076178 88.746124 -6.306441 0.984433 35.492741 -5.319723 12.519758 
0.000000 43.528500 -0.546680 21.596003 0.000000 0.000000 -1.537741 -0.539893 -0.120048 12.099381 -0.668309 -0.800337 6.996825 0.000000 0.000000 10.802570 0.000000 0.000000 4.921806 6.119331 11.096996 -77.959221 1.386215 -1.942763 18.675697 -25.482943 5.899059 0.583389 -28.416788 6.046119 7.103195 3.833392 2.260059 82.068634 19.440029 31.553852 36.998844 4.998461 6.428837 -0.219866 -1.884258 -28.660830 -19.119654 2.820720 11.037774 82.311386 6.913919 -2.010694 72.753723 19.995880 -17.669983 -19.267569 -2.748706 -11.039777 88.719612 -6.303854 0.987385 35.492741 -5.319723 12.519758 
0.000000 43.528500 -0.512512 21.245590 0.000000 0.000000 -1.963435 -0.539897 -0.120058 13.951106 -0.668253 -0.800400 6.996825 0.000000 0.000000 11.253315 0.000000 0.000000 4.858393 5.901671 10.223466 -77.959221 1.386215 -1.942763 18.479725 -25.303442 5.827214 0.547026 -28.443504 5.814946 7.139508 4.284733 1.935150 81.338318 20.050289 31.522198 36.998867 4.998466 6.450768 0.059295 -1.236489 -28.078592 -18.642036 2.800820 11.006275 82.284218 6.910710 -2.013942 72.753723 19.995880 -17.669983 -18.792307 -2.722915 -11.003167 88.693100 -6.301265 0.990336 35.492741 -5.319723 12.519758 
0.000000 43.528500 -0.478345 20.895214 0.000000 0.000000 -2.389070 -0.539903 -0.120067 15.797987 -0.668196 -0.800462 6.996825 0.000000 0.000000 11.703989 0.000000 0.000000 4.791720 5.685135 9.350579 -77.959221 1.386215 -1.942763 18.284302 -25.123737 5.756159 0.510778 -28.470335 5.583743 7.178401 4.735754 1.609830 80.605255 20.659702 31.482141 36.998875 4.998471 6.472700 0.344788 -0.592011 -27.493683 -18.164505 2.781187 10.974620 82.257042 6.907496 -2.017186 72.753723 19.995880 -17.669983 -18.317118 -2.697432 -10.966350 88.666573 -6.298675 0.993286 35.492741 -5.319723 12.519758 
0.000000 43.528500 -0.444177 20.544872 0.000000 0.000000 -2.814634 -0.539908 -0.120077 17.639086 -0.668137 -0.800521 6.996825 0.000000 0.000000 12.154580 0.000000 0.000000 4.721819 5.469797 8.478420 -77.959221 1.386215 -1.942763 18.089424 -24.943823 5.685889 0.474646 -28.497299 5.352514 7.219879 5.186422 1.284072 79.869347 21.268085 31.433599 36.998886 4.998476 6.494630 0.636604 0.049019 -26.906069 -17.687063 2.761822 10.942808 82.229874 6.904282 -2.020429 72.753723 19.995880 -17.669983 -17.842030 -2.672262 -10.929334 88.640060 -6.296082 0.996235 35.492741 -5.319723 12.519758 
0.000000 43.528500 -0.410010 20.194576 0.000000 0.000000 -3.240116 -0.539913 -0.120086 19.473482 -0.668076 -0.800578 6.996825 0.000000 0.000000 12.605072 0.000000 0.000000 4.648725 5.255729 7.607069 -77.959221 1.386215 -1.942763 17.895079 -24.763702 5.616397 0.438632 -28.524395 5.121262 7.263947 5.636697 0.957850 79.130501 21.875265 31.376507 36.998898 4.998479 6.516558 0.934727 0.686439 -26.315680 -17.209743 2.742727 10.910843 82.202705 6.901067 -2.023671 72.753723 19.995880 -17.669983 -17.367046 -2.647404 -10.892118 88.613548 -6.293491 0.999182 35.492741 -5.319723 12.519758 
